<svg id="Design" xmlns="http://www.w3.org/2000/svg" viewBox="0 0 88.18 110.66"><defs><style>.cls-1{fill:#801a53;}.cls-2{fill:#1f796c;}.cls-3{fill:#ffce06;}.cls-4{fill:none;stroke:#231f20;stroke-miterlimit:10;stroke-width:1.5px;}</style></defs><title>ez</title><polygon class="cls-1" points="80.52 54.55 87.34 42.61 87.34 56.14 80.66 67.81 80.43 67.81 80.43 54.55 80.52 54.55"/><polygon class="cls-1" points="87.34 0.75 87.34 14.33 71.08 42.61 63.4 42.61 87.34 0.75"/><polygon class="cls-2" points="71.08 42.61 87.34 42.61 80.52 54.55 80.43 54.55 56.94 54.55 56.57 54.55 39.52 84.38 47.07 84.38 75.85 84.38 68.99 96.39 68.99 96.32 15.1 96.32 21.86 84.5 31.14 68.27 38.98 54.55 15 54.55 21.82 42.61 45.81 42.61 55.09 26.37 55.1 26.37 62.86 12.78 0.75 12.78 0.75 12.45 7.45 0.75 87.34 0.75 63.4 42.61 71.08 42.61"/><polygon class="cls-3" points="56.94 67.12 56.94 54.55 80.43 54.55 80.43 67.81 57.31 67.67 56.94 67.67 56.94 67.12"/><polygon class="cls-1" points="75.85 84.38 75.85 97.97 69.02 109.92 68.99 109.91 68.99 96.39 75.85 84.38"/><polygon class="cls-3" points="15.1 96.32 68.99 96.32 68.99 96.39 68.99 109.91 0.75 109.91 0.75 12.78 62.86 12.78 55.1 26.37 55.09 26.37 21.65 26.37 14.96 26.37 14.96 54.55 15 54.55 38.98 54.55 31.14 68.27 30.91 68.14 21.65 68.14 14.96 68.14 14.96 96.32 15.1 96.32"/><polygon class="cls-1" points="56.94 54.55 56.94 67.12 47.07 84.38 39.52 84.38 56.57 54.55 56.94 54.55"/><polygon class="cls-1" points="21.86 84.5 15.1 96.32 14.96 96.32 14.96 68.14 21.65 68.14 21.65 84.38 21.86 84.5"/><polygon class="cls-1" points="21.82 42.61 15 54.55 14.96 54.55 14.96 26.37 21.65 26.37 21.65 42.61 21.82 42.61"/><line class="cls-4" x1="0.75" y1="12.78" x2="0.75" y2="109.91"/><line class="cls-4" x1="0.75" y1="109.91" x2="68.99" y2="109.91"/><polyline class="cls-4" points="14.96 96.32 15.1 96.32 68.99 96.32"/><polyline class="cls-4" points="68.99 96.32 68.99 96.39 68.99 109.91"/><line class="cls-4" x1="75.85" y1="84.38" x2="75.85" y2="97.97"/><line class="cls-4" x1="68.99" y1="96.39" x2="75.85" y2="84.38"/><line class="cls-4" x1="14.96" y1="68.14" x2="14.96" y2="96.32"/><polyline class="cls-4" points="14.96 68.14 21.65 68.14 30.91 68.14"/><polyline class="cls-4" points="14.96 54.55 15 54.55 38.98 54.55"/><polyline class="cls-4" points="21.65 42.61 21.82 42.61 45.81 42.61"/><polyline class="cls-4" points="68.99 109.97 69.02 109.92 75.85 97.97"/><polyline class="cls-4" points="14.96 96.56 15.1 96.32 21.86 84.5 31.14 68.27 38.98 54.55"/><polyline class="cls-4" points="14.96 54.62 15 54.55 21.82 42.61"/><line class="cls-4" x1="55.1" y1="26.37" x2="62.86" y2="12.78"/><line class="cls-4" x1="45.81" y1="42.61" x2="55.09" y2="26.37"/><line class="cls-4" x1="39.52" y1="84.38" x2="56.57" y2="54.55"/><polyline class="cls-4" points="39.52 84.38 47.07 84.38 75.85 84.38"/><polyline class="cls-4" points="56.44 54.55 56.57 54.55 56.94 54.55 80.43 54.55 80.52 54.55 80.81 54.55"/><line class="cls-4" x1="14.96" y1="26.37" x2="14.96" y2="54.55"/><polyline class="cls-4" points="14.96 26.37 21.65 26.37 55.09 26.37 55.1 26.37"/><line class="cls-4" x1="21.65" y1="26.37" x2="21.65" y2="42.61"/><line class="cls-4" x1="21.65" y1="68.14" x2="21.65" y2="84.38"/><line class="cls-4" x1="0.75" y1="12.78" x2="62.86" y2="12.78"/><polyline class="cls-4" points="0.75 12.45 7.45 0.75 7.62 0.45"/><polyline class="cls-4" points="7.27 0.75 7.45 0.75 87.34 0.75"/><line class="cls-4" x1="63.4" y1="42.61" x2="87.34" y2="0.75"/><line class="cls-4" x1="87.34" y1="0.75" x2="87.34" y2="14.33"/><polyline class="cls-4" points="62.86 42.61 63.4 42.61 71.08 42.61 87.34 42.61"/><polyline class="cls-4" points="70.92 42.89 71.08 42.61 87.34 14.33"/><polyline class="cls-4" points="80.48 54.62 80.52 54.55 87.34 42.61"/><polyline class="cls-4" points="57.31 67.67 80.43 67.81 80.66 67.81"/><polyline class="cls-4" points="87.34 42.61 87.34 56.14 87.34 56.2"/><polyline class="cls-4" points="80.43 54.45 80.43 54.55 80.43 67.81 80.43 68.04"/><polyline class="cls-4" points="80.66 67.81 87.34 56.14 87.53 55.81"/><polyline class="cls-4" points="56.94 54.55 56.94 67.12 56.94 67.67 56.94 68.14"/><polyline class="cls-4" points="47.07 84.38 56.94 67.12 57.04 66.95"/></svg>