<svg version="1.1" viewBox="0.0 0.0 309.8556430446194 293.3884514435696" fill="none" stroke="none" stroke-linecap="square" stroke-miterlimit="10" xmlns:xlink="http://www.w3.org/1999/xlink" xmlns="http://www.w3.org/2000/svg"><clipPath id="p.0"><path d="m0 0l309.85565 0l0 293.38846l-309.85565 0l0 -293.38846z" clip-rule="nonzero"/></clipPath><g clip-path="url(#p.0)"><path fill="#000000" fill-opacity="0.0" d="m0 0l309.85565 0l0 293.38846l-309.85565 0z" fill-rule="evenodd"/><path fill="#ffffff" d="m27.497429 24.324778l0 0c2.1537037 -3.641842 6.8527794 -4.8496704 10.495682 -2.6977634l68.030495 40.18647c1.749382 1.0333824 3.0162582 2.7191772 3.5219421 4.686531c0.50567627 1.9673538 0.2087326 4.055107 -0.8255081 5.8039856l-15.59803 26.375755c-2.1537018 3.6418457 -6.8527756 4.849678 -10.495682 2.6977692l-68.03049 -40.186474c-3.6429024 -2.1519089 -4.8501377 -6.848671 -2.696435 -10.490513z" fill-rule="evenodd"/><path stroke="#ffffff" stroke-width="1.0" stroke-linejoin="round" stroke-linecap="butt" d="m27.497429 24.324778l0 0c2.1537037 -3.641842 6.8527794 -4.8496704 10.495682 -2.6977634l68.030495 40.18647c1.749382 1.0333824 3.0162582 2.7191772 3.5219421 4.686531c0.50567627 1.9673538 0.2087326 4.055107 -0.8255081 5.8039856l-15.59803 26.375755c-2.1537018 3.6418457 -6.8527756 4.849678 -10.495682 2.6977692l-68.03049 -40.186474c-3.6429024 -2.1519089 -4.8501377 -6.848671 -2.696435 -10.490513z" fill-rule="evenodd"/><path fill="#ffffff" d="m75.99876 56.22537l0 0c1.6515121 -2.7946587 5.256279 -3.7220955 8.051476 -2.0714874l89.49922 52.850704c1.3423004 0.7926483 2.3145752 2.0859528 2.7029266 3.5954056c0.38835144 1.5094604 0.16098022 3.111412 -0.63209534 4.453453l-11.960968 20.240105c-1.6515198 2.7946625 -5.2562866 3.7220917 -8.051483 2.0714874l-89.49922 -52.8507c-2.7951965 -1.6506119 -3.722332 -5.254204 -2.070816 -8.048866z" fill-rule="evenodd"/><path stroke="#ffffff" stroke-width="1.0" stroke-linejoin="round" stroke-linecap="butt" d="m75.99876 56.22537l0 0c1.6515121 -2.7946587 5.256279 -3.7220955 8.051476 -2.0714874l89.49922 52.850704c1.3423004 0.7926483 2.3145752 2.0859528 2.7029266 3.5954056c0.38835144 1.5094604 0.16098022 3.111412 -0.63209534 4.453453l-11.960968 20.240105c-1.6515198 2.7946625 -5.2562866 3.7220917 -8.051483 2.0714874l-89.49922 -52.8507c-2.7951965 -1.6506119 -3.722332 -5.254204 -2.070816 -8.048866z" fill-rule="evenodd"/><path fill="#ffffff" d="m76.900635 93.621376l0 0c0.15879059 -0.98244476 1.0842438 -1.6519623 2.067047 -1.4954147l0 0l0 0c0.47196198 0.07518005 0.89429474 0.33470154 1.1741028 0.72146606c0.27980804 0.38676453 0.3941574 0.8690872 0.3179016 1.3408813l-26.889523 166.36351c-0.1587944 0.9824524 -1.0842438 1.651947 -2.067051 1.4953918l0 0l0 0c-0.98280334 -0.15655518 -1.6507988 -1.079895 -1.4920044 -2.062317z" fill-rule="evenodd"/><path stroke="#ffffff" stroke-width="1.0" stroke-linejoin="round" stroke-linecap="butt" d="m76.900635 93.621376l0 0c0.15879059 -0.98244476 1.0842438 -1.6519623 2.067047 -1.4954147l0 0l0 0c0.47196198 0.07518005 0.89429474 0.33470154 1.1741028 0.72146606c0.27980804 0.38676453 0.3941574 0.8690872 0.3179016 1.3408813l-26.889523 166.36351c-0.1587944 0.9824524 -1.0842438 1.651947 -2.067051 1.4953918l0 0l0 0c-0.98280334 -0.15655518 -1.6507988 -1.079895 -1.4920044 -2.062317z" fill-rule="evenodd"/><path fill="#ffffff" d="m78.18043 95.65282l0 0c-0.23561859 -0.9652176 0.35598755 -1.9380493 1.3213959 -2.1728745l0 0l0 0c0.4636078 -0.11277008 0.9531784 -0.03678894 1.3610077 0.21121979c0.40782928 0.24801636 0.7005081 0.64775085 0.81365967 1.1112595l39.96563 163.71722c0.23562622 0.96520996 -0.35598755 1.9380493 -1.3213959 2.172882l0 0l0 0c-0.9654083 0.23483276 -1.9390411 -0.3572693 -2.1746674 -1.3224792z" fill-rule="evenodd"/><path stroke="#ffffff" stroke-width="1.0" stroke-linejoin="round" stroke-linecap="butt" d="m78.18043 95.65282l0 0c-0.23561859 -0.9652176 0.35598755 -1.9380493 1.3213959 -2.1728745l0 0l0 0c0.4636078 -0.11277008 0.9531784 -0.03678894 1.3610077 0.21121979c0.40782928 0.24801636 0.7005081 0.64775085 0.81365967 1.1112595l39.96563 163.71722c0.23562622 0.96520996 -0.35598755 1.9380493 -1.3213959 2.172882l0 0l0 0c-0.9654083 0.23483276 -1.9390411 -0.3572693 -2.1746674 -1.3224792z" fill-rule="evenodd"/><path fill="#ffffff" d="m77.75269 77.09951l0 0c0 -0.99150085 0.803772 -1.7952728 1.7952805 -1.7952728l0 0l0 0c0.47613525 0 0.9327698 0.18914032 1.2694473 0.5258179c0.33667755 0.33668518 0.5258255 0.7933197 0.5258255 1.269455l0 168.53543c0 0.99150085 -0.803772 1.7952728 -1.7952728 1.7952728l0 0l0 0c-0.9915085 0 -1.7952805 -0.803772 -1.7952805 -1.7952728z" fill-rule="evenodd"/><path stroke="#ffffff" stroke-width="1.0" stroke-linejoin="round" stroke-linecap="butt" d="m77.75269 77.09951l0 0c0 -0.99150085 0.803772 -1.7952728 1.7952805 -1.7952728l0 0l0 0c0.47613525 0 0.9327698 0.18914032 1.2694473 0.5258179c0.33667755 0.33668518 0.5258255 0.7933197 0.5258255 1.269455l0 168.53543c0 0.99150085 -0.803772 1.7952728 -1.7952728 1.7952728l0 0l0 0c-0.9915085 0 -1.7952805 -0.803772 -1.7952805 -1.7952728z" fill-rule="evenodd"/><path fill="#ffffff" d="m187.52231 55.90551l0 0c0 -26.457481 21.448029 -47.90551 47.905518 -47.90551l0 0c12.705322 0 24.89029 5.0471735 33.8743 14.0312c8.984039 8.984026 14.0312195 21.16898 14.0312195 33.87431l0 0c0 26.457489 -21.448029 47.90551 -47.905518 47.90551l0 0c-26.457489 0 -47.905518 -21.44802 -47.905518 -47.90551z" fill-rule="evenodd"/><path stroke="#ffffff" stroke-width="1.0" stroke-linejoin="round" stroke-linecap="butt" d="m187.52231 55.90551l0 0c0 -26.457481 21.448029 -47.90551 47.905518 -47.90551l0 0c12.705322 0 24.89029 5.0471735 33.8743 14.0312c8.984039 8.984026 14.0312195 21.16898 14.0312195 33.87431l0 0c0 26.457489 -21.448029 47.90551 -47.905518 47.90551l0 0c-26.457489 0 -47.905518 -21.44802 -47.905518 -47.90551z" fill-rule="evenodd"/><path fill="#ffffff" d="m227.1769 32.48443l0 0c-0.5393524 -3.2615032 1.6673889 -6.342615 4.9289246 -6.881853l0 0l0 0c1.5662384 -0.2589512 3.1712189 0.11488533 4.4618683 1.0392704c1.2906342 0.9243851 2.1612244 2.323597 2.4202423 3.8898277l28.881454 174.64574c0.53933716 3.2615051 -1.6673889 6.342621 -4.9289246 6.881851l0 0l0 0c-3.2615356 0.5392456 -6.342743 -1.6675873 -6.8821106 -4.9290924z" fill-rule="evenodd"/><path stroke="#ffffff" stroke-width="1.0" stroke-linejoin="round" stroke-linecap="butt" d="m227.1769 32.48443l0 0c-0.5393524 -3.2615032 1.6673889 -6.342615 4.9289246 -6.881853l0 0l0 0c1.5662384 -0.2589512 3.1712189 0.11488533 4.4618683 1.0392704c1.2906342 0.9243851 2.1612244 2.323597 2.4202423 3.8898277l28.881454 174.64574c0.53933716 3.2615051 -1.6673889 6.342621 -4.9289246 6.881851l0 0l0 0c-3.2615356 0.5392456 -6.342743 -1.6675873 -6.8821106 -4.9290924z" fill-rule="evenodd"/><path fill="#ffffff" d="m255.96446 207.55687l0 0c0.8950348 -3.1834717 4.201126 -5.037964 7.3843536 -4.1421356l0 0l0 0c1.528656 0.43019104 2.823944 1.450058 3.6009521 2.8352509c0.77700806 1.3851929 0.9720459 3.022232 0.5422363 4.5509796l-20.853302 74.172424c-0.8950348 3.1834717 -4.201126 5.037964 -7.384369 4.1421204l0 0l0 0c-3.1832428 -0.895813 -5.0382233 -4.202759 -4.1431885 -7.3862305z" fill-rule="evenodd"/><path stroke="#ffffff" stroke-width="1.0" stroke-linejoin="round" stroke-linecap="butt" d="m255.96446 207.55687l0 0c0.8950348 -3.1834717 4.201126 -5.037964 7.3843536 -4.1421356l0 0l0 0c1.528656 0.43019104 2.823944 1.450058 3.6009521 2.8352509c0.77700806 1.3851929 0.9720459 3.022232 0.5422363 4.5509796l-20.853302 74.172424c-0.8950348 3.1834717 -4.201126 5.037964 -7.384369 4.1421204l0 0l0 0c-3.1832428 -0.895813 -5.0382233 -4.202759 -4.1431885 -7.3862305z" fill-rule="evenodd"/><path fill="#ffffff" d="m258.5371 212.12123l0 0c-1.3418274 -3.0256195 0.024047852 -6.564163 3.0507507 -7.9035645l0 0l0 0c1.4534607 -0.64320374 3.103363 -0.6828766 4.5867615 -0.11029053c1.4833984 0.5725708 2.6787415 1.7105103 3.32312 3.1634674l32.337708 72.91727c1.3417969 3.0256348 -0.024047852 6.5641785 -3.0507507 7.9035645l0 0l0 0c-3.026703 1.3394165 -6.5680847 -0.027557373 -7.9098816 -3.0531616z" fill-rule="evenodd"/><path stroke="#ffffff" stroke-width="1.0" stroke-linejoin="round" stroke-linecap="butt" d="m258.5371 212.12123l0 0c-1.3418274 -3.0256195 0.024047852 -6.564163 3.0507507 -7.9035645l0 0l0 0c1.4534607 -0.64320374 3.103363 -0.6828766 4.5867615 -0.11029053c1.4833984 0.5725708 2.6787415 1.7105103 3.32312 3.1634674l32.337708 72.91727c1.3417969 3.0256348 -0.024047852 6.5641785 -3.0507507 7.9035645l0 0l0 0c-3.026703 1.3394165 -6.5680847 -0.027557373 -7.9098816 -3.0531616z" fill-rule="evenodd"/><path fill="#ffffff" d="m250.35873 133.1027l0 0c3.1749115 0.93811035 4.987213 4.2720795 4.0478973 7.4466248l0 0l0 0c-0.45108032 1.5244751 -1.4893494 2.8075562 -2.8863983 3.5669708c-1.397049 0.7594147 -3.038437 0.93296814 -4.56308 0.48246765l-62.26642 -18.398094c-3.1748962 -0.9381027 -4.987213 -4.272072 -4.047882 -7.446617l0 0l0 0c0.9393158 -3.174553 4.2745514 -4.987549 7.449463 -4.049446z" fill-rule="evenodd"/><path stroke="#ffffff" stroke-width="1.0" stroke-linejoin="round" stroke-linecap="butt" d="m250.35873 133.1027l0 0c3.1749115 0.93811035 4.987213 4.2720795 4.0478973 7.4466248l0 0l0 0c-0.45108032 1.5244751 -1.4893494 2.8075562 -2.8863983 3.5669708c-1.397049 0.7594147 -3.038437 0.93296814 -4.56308 0.48246765l-62.26642 -18.398094c-3.1748962 -0.9381027 -4.987213 -4.272072 -4.047882 -7.446617l0 0l0 0c0.9393158 -3.174553 4.2745514 -4.987549 7.449463 -4.049446z" fill-rule="evenodd"/><path fill="#ffffff" d="m248.65988 133.9689l0 0c3.2694855 -0.517807 6.3359222 1.7134705 6.84906 4.9836884l0 0l0 0c0.24642944 1.5704193 -0.14094543 3.175293 -1.0769043 4.461563c-0.93595886 1.2862854 -2.3438263 2.1486053 -3.9138947 2.3972626l-64.12863 10.156357c-3.2695007 0.517807 -6.3359222 -1.7134705 -6.8490753 -4.9836884l0 0l0 0c-0.5131378 -3.270218 1.7213135 -6.3410187 4.990799 -6.8588257z" fill-rule="evenodd"/><path stroke="#ffffff" stroke-width="1.0" stroke-linejoin="round" stroke-linecap="butt" d="m248.65988 133.9689l0 0c3.2694855 -0.517807 6.3359222 1.7134705 6.84906 4.9836884l0 0l0 0c0.24642944 1.5704193 -0.14094543 3.175293 -1.0769043 4.461563c-0.93595886 1.2862854 -2.3438263 2.1486053 -3.9138947 2.3972626l-64.12863 10.156357c-3.2695007 0.517807 -6.3359222 -1.7134705 -6.8490753 -4.9836884l0 0l0 0c-0.5131378 -3.270218 1.7213135 -6.3410187 4.990799 -6.8588257z" fill-rule="evenodd"/></g></svg>