<svg version="1.1" viewBox="0.0 0.0 362.7716535433071 238.41469816272965" fill="none" stroke="none" stroke-linecap="square" stroke-miterlimit="10" xmlns:xlink="http://www.w3.org/1999/xlink" xmlns="http://www.w3.org/2000/svg"><clipPath id="p.0"><path d="m0 0l362.77167 0l0 238.4147l-362.77167 0l0 -238.4147z" clip-rule="nonzero"/></clipPath><g clip-path="url(#p.0)"><path fill="#000000" fill-opacity="0.0" d="m0 0l362.77167 0l0 238.4147l-362.77167 0z" fill-rule="evenodd"/><path fill="#ffffff" d="m68.05157 118.78463l0 0c0 -63.430122 51.420273 -114.850395 114.850395 -114.850395l0 0c30.46022 0 59.672867 12.100275 81.2115 33.638905c21.538605 21.538624 33.638885 50.75127 33.638885 81.21149l0 0c0 63.430122 -51.420273 114.850395 -114.85039 114.850395l0 0c-63.430122 0 -114.850395 -51.420273 -114.850395 -114.850395z" fill-rule="evenodd"/><path stroke="#ffffff" stroke-width="1.0" stroke-linejoin="round" stroke-linecap="butt" d="m68.05157 118.78463l0 0c0 -63.430122 51.420273 -114.850395 114.850395 -114.850395l0 0c30.46022 0 59.672867 12.100275 81.2115 33.638905c21.538605 21.538624 33.638885 50.75127 33.638885 81.21149l0 0c0 63.430122 -51.420273 114.850395 -114.85039 114.850395l0 0c-63.430122 0 -114.850395 -51.420273 -114.850395 -114.850395z" fill-rule="evenodd"/><path fill="#ffffff" d="m5.562303 160.47435c-1.1276922 -5.237503 16.474634 -14.2773285 48.934673 -25.130814c32.46004 -10.853485 77.11882 -22.631569 124.15193 -32.74321l0 0c97.94139 -21.056396 179.24226 -29.284485 181.59056 -18.377953l0 0c2.348297 10.90654 -75.14523 36.81762 -173.08662 57.874016l0 0c-97.94139 21.056396 -179.24225 29.284485 -181.59055 18.37796z" fill-rule="evenodd"/><path stroke="#ffffff" stroke-width="1.0" stroke-linejoin="round" stroke-linecap="butt" d="m5.562303 160.47435c-1.1276922 -5.237503 16.474634 -14.2773285 48.934673 -25.130814c32.46004 -10.853485 77.11882 -22.631569 124.15193 -32.74321l0 0c97.94139 -21.056396 179.24226 -29.284485 181.59056 -18.377953l0 0c2.348297 10.90654 -75.14523 36.81762 -173.08662 57.874016l0 0c-97.94139 21.056396 -179.24225 29.284485 -181.59055 18.37796z" fill-rule="evenodd"/></g></svg>